<svg xmlns="http://www.w3.org/2000/svg" xmlns:xlink="http://www.w3.org/1999/xlink" width="600" height="500">
  <defs>
    <path id="a" d="M0 109h120c5 0 9 4 9 9v42l71 .5V.5L0 0v109Z"/>
  </defs>
  <path fill="#FFF" fill-opacity=".5" fill-rule="nonzero" d="M42 156.9c0-1.9 1.6-3.5 3.5-3.5s3.5 1.6 3.5 3.5-1.6 3.5-3.5 3.5a3.5 3.5 0 0 1-3.5-3.5Zm14 0c0-1.9 1.6-3.5 3.5-3.5s3.5 1.6 3.5 3.5-1.6 3.5-3.5 3.5a3.5 3.5 0 0 1-3.5-3.5Zm-28 0c0-1.9 1.6-3.5 3.5-3.5s3.5 1.6 3.5 3.5-1.6 3.5-3.5 3.5a3.5 3.5 0 0 1-3.5-3.5Zm-14 0c0-1.9 1.6-3.5 3.5-3.5s3.5 1.6 3.5 3.5-1.6 3.5-3.5 3.5a3.5 3.5 0 0 1-3.5-3.5Zm-14 0c0-1.9 1.6-3.5 3.5-3.5S7 155 7 156.9s-1.6 3.5-3.5 3.5a3.5 3.5 0 0 1-3.5-3.5Z"/>
  <g transform="translate(60 120)">
    <mask id="b" fill="#fff">
      <use xlink:href="#a" transform="matrix(-1 0 0 1 200 0)"/>
    </mask>
    <path fill="#323232" fill-rule="nonzero" stroke="#0B0C0C" stroke-width="6" d="M197 3v154H3V3h194Z" mask="url(#b)"/>
    <g fill="#B1B4B6" fill-rule="nonzero" mask="url(#b)">
      <path d="M30 52v-3h-1.5c-2.3 0-3-1-3-3.5V41c0-2-1.5-3.8-4-3.8v-.5c2.5 0 4-1.7 4-3.7v-4.5c0-2.5.8-3.5 3-3.5H30v-3h-2.5c-4.5 0-6 1.5-6 6v3.5c0 2.5-1 3.5-4.5 3.5v4c3.5 0 4.5 1 4.5 3.5V46c0 4.5 1.5 6 6 6H30Zm20 0v-3h-1.5c-2.3 0-3-1-3-3.5V41c0-2-1.5-3.8-4-3.8v-.5c2.5 0 4-1.7 4-3.7v-4.5c0-2.5.8-3.5 3-3.5H50v-3h-2.5c-4.5 0-6 1.5-6 6v3.5c0 2.5-1 3.5-4.5 3.5v4c3.5 0 4.5 1 4.5 3.5V46c0 4.5 1.5 6 6 6H50Zm96 0v-3h1.5c2.3 0 3-1 3-3.5V41c0-2 1.5-3.8 4-3.8v-.5c-2.5 0-4-1.7-4-3.7v-4.5c0-2.5-.8-3.5-3-3.5H146v-3h2.5c4.5 0 6 1.5 6 6v3.5c0 2.5 1 3.5 4.5 3.5v4c-3.5 0-4.5 1-4.5 3.5V46c0 4.5-1.5 6-6 6H146Zm20 0v-3h1.5c2.3 0 3-1 3-3.5V41c0-2 1.5-3.8 4-3.8v-.5c-2.5 0-4-1.7-4-3.7v-4.5c0-2.5-.8-3.5-3-3.5H166v-3h2.5c4.5 0 6 1.5 6 6v3.5c0 2.5 1 3.5 4.5 3.5v4c-3.5 0-4.5 1-4.5 3.5V46c0 4.5-1.5 6-6 6H166ZM73.5 40.5a3.5 3.5 0 1 0 0-7 3.5 3.5 0 0 0 0 7ZM101 53V21h-4v32zm19-12 5-9 5 9z"/>
    </g>
  </g>
  <path fill="#FFF" d="M138 236h340v230H138z" opacity=".3"/>
  <path fill="#1E1E1E" fill-rule="nonzero" d="M476.4 228.5c5.6 0 9.1 3.8 9.1 9.8v238.2h-355V238.3c0-6 3.5-9.8 9-9.8h337ZM280 236H142a4 4 0 0 0-4 4v226h340V240a4 4 0 0 0-4-4H336v6a3 3 0 0 1-3 3h-50a3 3 0 0 1-3-3v-6Z"/>
  <path fill="#EDEDED" fill-rule="nonzero" d="M486 476h-1V237.5c0-5-3.5-8.5-8.5-8.5h-337c-5 0-8.5 3.5-8.5 8.5V476h-1V237.5c0-5.5 4-9.5 9.5-9.5h337c5.5 0 9.5 4 9.5 9.5V476Z"/>
  <path fill="#808283" fill-rule="nonzero" d="M269 476h78v7h-78z"/>
  <path fill="#B1B4B6" fill-rule="nonzero" d="M339.5 482.5H276c-5 0-6.5-3-6.5-6.5H80v10a8 8 0 0 0 8 8h440a8 8 0 0 0 8-8v-10H346.5c0 4-2 6.5-7 6.5Z"/>
  <path fill="#A5A9AB" fill-rule="nonzero" d="M80 486v.1a8 8 0 0 0 8 7.9h440a7.9 7.9 0 0 0 7.9-8 8.5 8.5 0 0 1-5.5 2H86c-2.1 0-4.2-.7-5.9-2Z"/>
  <path fill="none" stroke="#EDEDED" d="M536 476.5H346.5c0 4-2.5 6-6.5 6h-64c-4 0-6.5-2-6.5-6H80"/>
  <path fill="#000" fill-opacity=".5" fill-rule="nonzero" d="M105 496h406l20 4H85z"/>
  <path fill="#505A5F" fill-rule="nonzero" d="m107.4 494 5.7 3h38.6l5.7-3zm352 0 5.7 3h38.6l5.7-3z"/>
  <path fill="#FFF" fill-rule="nonzero" stroke="#0B0C0C" stroke-width="2" d="M179 280h258v148H179z"/>
  <path fill="#0B0C0C" fill-rule="nonzero" d="M179 280h258v28H179z"/>
  <text fill="#FFF" font-family="system-ui, sans-serif" font-size="16" transform="translate(180 280)">
    <tspan x="16" y="20">Service</tspan>
  </text>
  <path fill="#B1B4B6" fill-rule="nonzero" d="M196 322h82v9h-82v-9Zm0 18h171v9H196v-9Zm0 18h171v9H196v-9Zm0 18h113v9H196v-9Z"/>
  <path fill="#00703C" fill-rule="nonzero" d="M196 397h96v15h-96z"/>
  <path fill="#0B0C0C" fill-rule="nonzero" d="M196 412h96v2h-96z"/>
  <path fill="#D4351C" d="m248 154 92-122v24l-92 99z"/>
  <path fill="#F47738" d="m248 155 92-99v24l-92 76z"/>
  <path fill="#FD0" d="m248 156 92-76v25l-92 52z"/>
  <path fill="#85994B" d="m248 157 92-52v25l-92 28z"/>
  <path fill="#5694CA" d="m248 158 92-28v25l-92 4z"/>
  <path fill="#6E71AF" d="m248 159 92-4v25l-92-20z"/>
  <path fill="#FFF" fill-rule="nonzero" stroke="#0B0C0C" stroke-width="4" d="M340 32h196v148H340z"/>
  <path fill="#0B0C0C" d="M350 42h156v15H350z"/>
  <path fill="#B1B4B6" fill-rule="nonzero" d="M351 70h82v9h-82v-9Zm0 21h113v9H351v-9Z"/>
  <path fill="#FD0" fill-rule="nonzero" d="M351 112h96v15h-96z"/>
  <path fill="#0B0C0C" fill-rule="nonzero" d="M351 127h96v2h-96z"/>
  <g fill-rule="nonzero">
    <path fill="#FFF" fill-opacity=".5" d="M572 177h28v9h-28v-9Zm0-56h28v9h-28v-9Z"/>
    <g transform="translate(512 157)">
      <circle cx="24" cy="24" r="20" fill="#FFF"/>
      <path fill="#0B0C0C" d="M24 8a16 16 0 0 1 16 16 16 16 0 0 1-16 16A16 16 0 0 1 8 24 16 16 0 0 1 24 8m0-4C13 4 4 13 4 24s9 20 20 20 20-9 20-20S35 4 24 4Z"/>
      <path fill="#FD0" d="M24 4c11 0 20 9 20 20s-9 20-20 20S4 35 4 24 13 4 24 4m0-4a24 24 0 1 0 0 48 24 24 0 1 0 0-48Z"/>
      <circle cx="24" cy="24" r="10" fill="#0B0C0C"/>
    </g>
    <path fill="#FFF" d="M517 107h36v36h-36z"/>
    <path fill="#0B0C0C" d="M551 109v32h-32v-32h32m4-4h-40v40h40v-40Z"/>
    <path fill="#0B0C0C" d="m548 118.5-3.5-3.5-12.9 12.8-5.1-5-3.5 3.6 8.6 8.6 16.4-16.5"/>
    <path fill="#FD0" d="M555 105v40h-40v-40h40m3-3h-46v46h46v-46Z"/>
  </g>
</svg>
