<svg xmlns="http://www.w3.org/2000/svg" xmlns:xlink="http://www.w3.org/1999/xlink" width="600" height="500">
  <defs>
    <path id="a" d="M0 108h130c5 0 9 4 9 9v52h65V0H0v108Z" />
  </defs>
  <path fill="#FFF" fill-opacity=".5" fill-rule="nonzero"
    d="M42 156.9c0-1.9 1.6-3.5 3.5-3.5s3.5 1.6 3.5 3.5-1.6 3.5-3.5 3.5a3.5 3.5 0 0 1-3.5-3.5Zm14 0c0-1.9 1.6-3.5 3.5-3.5s3.5 1.6 3.5 3.5-1.6 3.5-3.5 3.5a3.5 3.5 0 0 1-3.5-3.5Zm14 0c0-1.9 1.6-3.5 3.5-3.5s3.5 1.6 3.5 3.5-1.6 3.5-3.5 3.5a3.5 3.5 0 0 1-3.5-3.5Zm-42 0c0-1.9 1.6-3.5 3.5-3.5s3.5 1.6 3.5 3.5-1.6 3.5-3.5 3.5a3.5 3.5 0 0 1-3.5-3.5Zm-14 0c0-1.9 1.6-3.5 3.5-3.5s3.5 1.6 3.5 3.5-1.6 3.5-3.5 3.5a3.5 3.5 0 0 1-3.5-3.5Zm-14 0c0-1.9 1.6-3.5 3.5-3.5S7 155 7 156.9s-1.6 3.5-3.5 3.5a3.5 3.5 0 0 1-3.5-3.5Zm-14 0c0-1.9 1.6-3.5 3.5-3.5S-7 155-7 156.9s-1.6 3.5-3.5 3.5a3.5 3.5 0 0 1-3.5-3.5Zm-14 0c0-1.9 1.6-3.5 3.5-3.5s3.5 1.6 3.5 3.5-1.6 3.5-3.5 3.5a3.5 3.5 0 0 1-3.5-3.5Zm-14 0c0-1.9 1.6-3.5 3.5-3.5s3.5 1.6 3.5 3.5-1.6 3.5-3.5 3.5a3.5 3.5 0 0 1-3.5-3.5Zm-14 0c0-1.9 1.6-3.5 3.5-3.5s3.5 1.6 3.5 3.5-1.6 3.5-3.5 3.5a3.5 3.5 0 0 1-3.5-3.5Z" />
  <g transform="translate(66 120)">
    <mask id="b" fill="#fff">
      <use xlink:href="#a" transform="matrix(-1 0 0 1 204 0)" />
    </mask>
    <use xlink:href="#a" fill="#D8D8D8" transform="matrix(-1 0 0 1 204 0)" />
    <path fill="#323232" fill-rule="nonzero" stroke="#0B0C0C" stroke-width="6" d="M3 3h198v163H3z" mask="url(#b)" />
    <g fill="#B1B4B6" fill-rule="nonzero" mask="url(#b)">
      <path
        d="M34 52v-3h-1.5c-2.3 0-3-1-3-3.5V41c0-2-1.5-3.8-4-3.8v-.5c2.5 0 4-1.7 4-3.7v-4.5c0-2.5.8-3.5 3-3.5H34v-3h-2.5c-4.5 0-6 1.5-6 6v3.5c0 2.5-1 3.5-4.5 3.5v4c3.5 0 4.5 1 4.5 3.5V46c0 4.5 1.5 6 6 6H34Zm20 0v-3h-1.5c-2.3 0-3-1-3-3.5V41c0-2-1.5-3.8-4-3.8v-.5c2.5 0 4-1.7 4-3.7v-4.5c0-2.5.8-3.5 3-3.5H54v-3h-2.5c-4.5 0-6 1.5-6 6v3.5c0 2.5-1 3.5-4.5 3.5v4c3.5 0 4.5 1 4.5 3.5V46c0 4.5 1.5 6 6 6H54Zm96 0v-3h1.5c2.3 0 3-1 3-3.5V41c0-2 1.5-3.8 4-3.8v-.5c-2.5 0-4-1.7-4-3.7v-4.5c0-2.5-.8-3.5-3-3.5H150v-3h2.5c4.5 0 6 1.5 6 6v3.5c0 2.5 1 3.5 4.5 3.5v4c-3.5 0-4.5 1-4.5 3.5V46c0 4.5-1.5 6-6 6H150Zm20 0v-3h1.5c2.3 0 3-1 3-3.5V41c0-2 1.5-3.8 4-3.8v-.5c-2.5 0-4-1.7-4-3.7v-4.5c0-2.5-.8-3.5-3-3.5H170v-3h2.5c4.5 0 6 1.5 6 6v3.5c0 2.5 1 3.5 4.5 3.5v4c-3.5 0-4.5 1-4.5 3.5V46c0 4.5-1.5 6-6 6H170ZM77.5 40.5a3.5 3.5 0 1 0 0-7 3.5 3.5 0 0 0 0 7ZM105 53V21h-4v32zm19-12 5-9 5 9z" />
    </g>
  </g>
  <path fill="#FFF" d="M139 235.5h340v230H139z" opacity=".3" />
  <path fill="#1E1E1E" fill-rule="nonzero"
    d="M477.4 228c5.6 0 9.1 3.8 9.1 9.8V476h-355V237.8c0-6 3.5-9.8 9-9.8h337ZM281 235.5H143a4 4 0 0 0-4 4v226h340v-226a4 4 0 0 0-4-4H337v6a3 3 0 0 1-3 3h-50a3 3 0 0 1-3-3v-6Z" />
  <path fill="#EDEDED" fill-rule="nonzero"
    d="M487 475.5h-1V237c0-5-3.5-8.5-8.5-8.5h-337c-5 0-8.5 3.5-8.5 8.5v238.5h-1V237c0-5.5 4-9.5 9.5-9.5h337c5.5 0 9.5 4 9.5 9.5v238.5Z" />
  <path fill="#808283" fill-rule="nonzero" d="M270 475.5h78v7h-78z" />
  <path fill="#B1B4B6" fill-rule="nonzero"
    d="M341 481.4h-64c-3.8 0-6-1.9-6.3-5.4H81v10a8 8 0 0 0 8 8h440a8 8 0 0 0 8-8l-.1-10H347.3c-.3 3.7-2.4 5.4-6.3 5.4Z" />
  <path fill="#A5A9AB" fill-rule="nonzero"
    d="M81 486v.1a8 8 0 0 0 8 7.9h440a7.9 7.9 0 0 0 7.9-8 8.5 8.5 0 0 1-5.5 2H87c-2.1 0-4.2-.7-5.9-2Z" />
  <path stroke="#EDEDED" d="M537 476H347.4c-.2 4.1-2.3 6-6.3 6H277c-3.8 0-6-2.1-6.3-6H81" />
  <path fill="#000" fill-opacity=".5" fill-rule="nonzero" d="M106 496h406l20 4H86z" />
  <path fill="#505A5F" fill-rule="nonzero" d="m108.4 494 5.7 3h38.6l5.7-3zm352 0 5.7 3h38.6l5.7-3z" />
  <g fill-rule="nonzero">
    <path fill="#FFF" stroke="#0B0C0C" stroke-width="2" d="M180 280h258v148H180z" />
    <path fill="#0B0C0C" d="M180 280h258v28H180z" />
    <path fill="#FFF"
      d="M198.6 297.4c.8 1 2 1.5 3.3 1.5 1.4 0 2.6-.7 2.6-2.1 0-.7-.4-1.4-1.1-1.6-1.1-.5-3-.6-4.2-1.3a2.7 2.7 0 0 1-1.4-2.4c0-1.8 1.5-3.2 3.9-3.2a5 5 0 0 1 3.8 1.6l-1 .8a3.6 3.6 0 0 0-2.8-1.2c-1.4 0-2.5.7-2.5 1.9 0 1.9 2.7 1.7 4.7 2.5 1.2.4 2 1.5 1.9 2.7 0 2.3-2.1 3.4-4.2 3.4-1.6 0-3.1-.6-4.2-1.8l1.2-.8Zm10.4-1.1c0 1.4 1.1 2.6 2.5 2.7h.1c.8 0 1.6-.3 2.2-.8l.7 1c-.8.7-1.9 1-2.9 1-2.4 0-3.9-1.8-3.9-4.3s1.5-4.3 3.7-4.3 3.5 1.8 3.5 4.3v.4H209Zm0-1.1h4.4c0-1.3-.8-2.4-2.1-2.4a2.3 2.3 0 0 0-2.3 2.4Zm12.1-2.2h-.2c-1.4 0-2.6.6-2.6 2.8v4.2H217v-8.2h1.4v1.3c.5-.9 1.4-1.5 2.5-1.5h.4v1.4h-.2Zm3.5 7-2.6-8.2h1.5l2 7 2-7h1.5l-2.6 8.2h-1.8Zm6.9-11.5c.6 0 1 .4 1 1s-.4 1-1 1-1-.4-1-1 .5-1 1-1Zm.7 11.5h-1.4v-8.2h1.4v8.2Zm3.5-4.1c0 1.6.8 3 2.4 3 .9 0 1.8-.6 2.1-1.4l1.1.6c-.6 1.2-1.9 2-3.2 1.9-2.3 0-3.8-1.8-3.8-4.3s1.5-4.3 3.8-4.3c1.4 0 2.6.7 3.2 1.9l-1.1.6a2.4 2.4 0 0 0-2.1-1.4c-1.6 0-2.4 1.4-2.4 3v.4Zm8.5.4c0 1.4 1.1 2.6 2.5 2.7h.1c.8 0 1.6-.3 2.2-.8l.7 1c-.8.7-1.9 1-2.9 1-2.4 0-3.9-1.8-3.9-4.3s1.5-4.3 3.8-4.3 3.5 1.8 3.5 4.3v.4h-6Zm0-1.1h4.4c0-1.3-.8-2.4-2.1-2.4a2.4 2.4 0 0 0-2.3 2.4Z" />
    <path fill="#B1B4B6" d="M197 322h82v9h-82v-9Zm0 18h171v9H197v-9Zm0 18h171v9H197v-9Zm0 18h113v9H197v-9Z" />
    <path fill="#00703C" d="M197 397h96v15h-96z" />
    <path fill="#0B0C0C" d="M197 412h96v2h-96z" />
  </g>
  <path fill="#D4351C" d="m256 154 86-122v24l-86 99z" />
  <path fill="#F47738" d="m256 155 86-99v24l-86 76z" />
  <path fill="#FD0" d="m256 156 86-76v25l-86 52z" />
  <path fill="#85994B" d="m256 157 86-52v25l-86 28z" />
  <path fill="#5694CA" d="m256 158 86-28v25l-86 4z" />
  <path fill="#6E71AF" d="m256 159 86-4v25l-86-20z" />
  <path fill="#FFF" fill-rule="nonzero" stroke="#0B0C0C" stroke-width="4" d="M342 32h196v148H342z" />
  <path fill="#0B0C0C" d="M352 42h156v15H352z" />
  <path fill="#B1B4B6" fill-rule="nonzero" d="M353 70h82v9h-82v-9Zm0 21h113v9H353v-9Z" />
  <path fill="#FD0" fill-rule="nonzero" d="M353 112h96v15h-96z" />
  <path fill="#0B0C0C" fill-rule="nonzero" d="M353 127h96v2h-96z" />
  <g fill-rule="nonzero">
    <path fill="#FFF" fill-opacity=".5" d="M574 177h26v9h-26v-9Zm0-56h26v9h-26v-9Z" />
    <g transform="translate(514 157)">
      <circle cx="24" cy="24" r="20" fill="#FFF" />
      <path fill="#0B0C0C"
        d="M24 8a16 16 0 0 1 16 16 16 16 0 0 1-16 16A16 16 0 0 1 8 24 16 16 0 0 1 24 8m0-4C13 4 4 13 4 24s9 20 20 20 20-9 20-20S35 4 24 4Z" />
      <path fill="#FD0"
        d="M24 4c11 0 20 9 20 20s-9 20-20 20S4 35 4 24 13 4 24 4m0-4a24 24 0 1 0 0 48 24 24 0 1 0 0-48Z" />
      <circle cx="24" cy="24" r="10" fill="#0B0C0C" />
    </g>
    <path fill="#FFF" d="M519 107h36v36h-36z" />
    <path fill="#0B0C0C" d="M553 109v32h-32v-32h32m4-4h-40v40h40v-40Z" />
    <path fill="#0B0C0C" d="m550 118.5-3.5-3.5-12.9 12.8-5.1-5-3.5 3.6 8.6 8.6 16.4-16.5" />
    <path fill="#FD0" d="M557 105v40h-40v-40h40m3-3h-46v46h46v-46Z" />
  </g>
</svg>
